<svg xmlns="http://www.w3.org/2000/svg" viewBox="0 0 194.76 347.55"><defs><style>.cls-1{fill:#e92c4a;}.cls-2{fill:#fff;}</style></defs><g id="Layer_2" data-name="Layer 2"><g id="Layer_1-2" data-name="Layer 1"><circle class="cls-1" cx="97.38" cy="97.38" r="97.38"/><circle class="cls-2" cx="98.09" cy="98.01" r="7.01"/><circle class="cls-2" cx="79.97" cy="88.01" r="3.32"/><circle class="cls-2" cx="98.71" cy="77.5" r="3.32"/><circle class="cls-2" cx="117.33" cy="87.69" r="3.32"/><circle class="cls-2" cx="117.33" cy="109.27" r="3.32"/><circle class="cls-2" cx="98.89" cy="119.99" r="3.32"/><circle class="cls-2" cx="79.66" cy="109.24" r="3.32"/><polygon class="cls-2" points="34.12 54.55 92.08 19.77 92.83 60.53 65.91 77.36 34.12 54.55"/><polygon class="cls-2" points="103.68 21.27 102.93 59.41 129.86 75.87 161.27 54.18 103.68 21.27"/><polygon class="cls-2" points="133.22 82.97 168 62.78 168.38 134.58 133.59 115.14 133.22 82.97"/><polygon class="cls-2" points="101.81 139.44 132.47 121.87 159.4 142.81 104.8 176.84 101.81 139.44"/><polygon class="cls-2" points="35.99 140.57 64.78 122.24 92.08 138.32 91.71 174.6 35.99 140.57"/><polygon class="cls-2" points="29.26 65.02 61.04 81.1 61.42 115.51 28.51 130.47 29.26 65.02"/><text/></g></g></svg>